<svg width="51" height="51" viewBox="0 0 51 51" fill="none" xmlns="http://www.w3.org/2000/svg">
<circle cx="25.5" cy="25.5" r="25.5" fill="#F8FBFF"/>
<path d="M24.5813 17.152C26.3573 17.152 27.9093 17.504 29.2373 18.208C30.5653 18.912 31.5893 19.904 32.3093 21.184C33.0453 22.448 33.4133 23.912 33.4133 25.576C33.4133 27.224 33.0453 28.688 32.3093 29.968C31.5893 31.248 30.5573 32.24 29.2133 32.944C27.8853 33.648 26.3413 34 24.5813 34H18.2693V17.152H24.5813ZM24.3173 30.448C25.8693 30.448 27.0773 30.024 27.9413 29.176C28.8053 28.328 29.2373 27.128 29.2373 25.576C29.2373 24.024 28.8053 22.816 27.9413 21.952C27.0773 21.088 25.8693 20.656 24.3173 20.656H22.3733V30.448H24.3173Z" fill="#222F3E"/>
</svg>
